<svg width="24" height="25" viewBox="0 0 24 25" fill="none" xmlns="http://www.w3.org/2000/svg">
<path d="M8.93449 3.17781C8.15622 2.39954 7.10065 1.9623 6 1.9623C4.89935 1.9623 3.84378 2.39954 3.06551 3.17781C2.28723 3.95609 1.85 5.01166 1.85 6.1123C1.85 7.21295 2.28723 8.26852 3.06551 9.0468C3.84378 9.82507 4.89935 10.2623 6 10.2623H7.85V13.9623H6C4.89935 13.9623 3.84378 14.3995 3.06551 15.1778C2.28723 15.9561 1.85 17.0117 1.85 18.1123C1.85 19.213 2.28723 20.2685 3.06551 21.0468C3.84378 21.8251 4.89935 22.2623 6 22.2623C7.10065 22.2623 8.15622 21.8251 8.93449 21.0468C9.71277 20.2685 10.15 19.213 10.15 18.1123V16.2623H13.85V18.1123C13.85 19.213 14.2872 20.2685 15.0655 21.0468C15.8438 21.8251 16.8994 22.2623 18 22.2623C19.1006 22.2623 20.1562 21.8251 20.9345 21.0468C21.7128 20.2685 22.15 19.213 22.15 18.1123C22.15 17.0117 21.7128 15.9561 20.9345 15.1778C20.1562 14.3995 19.1006 13.9623 18 13.9623H16.15V10.2623H18C19.1006 10.2623 20.1562 9.82507 20.9345 9.0468C21.7128 8.26852 22.15 7.21295 22.15 6.1123C22.15 5.01166 21.7128 3.95609 20.9345 3.17781C20.1562 2.39954 19.1006 1.9623 18 1.9623C16.8994 1.9623 15.8438 2.39954 15.0655 3.17781C14.2872 3.95609 13.85 5.01166 13.85 6.1123V7.9623H10.15V6.1123C10.15 5.01166 9.71277 3.95609 8.93449 3.17781ZM16.6919 19.4205C16.3449 19.0735 16.15 18.603 16.15 18.1123V16.2623H18C18.4907 16.2623 18.9612 16.4572 19.3081 16.8042C19.6551 17.1511 19.85 17.6217 19.85 18.1123C19.85 18.603 19.6551 19.0735 19.3081 19.4205C18.9612 19.7674 18.4907 19.9623 18 19.9623C17.5093 19.9623 17.0388 19.7674 16.6919 19.4205ZM10.15 13.9623V10.2623H13.85V13.9623H10.15ZM4.69185 16.8042C5.03879 16.4572 5.50935 16.2623 6 16.2623H7.85V18.1123C7.85 18.603 7.65509 19.0735 7.30815 19.4205C6.96121 19.7674 6.49065 19.9623 6 19.9623C5.50935 19.9623 5.03879 19.7674 4.69185 19.4205C4.34491 19.0735 4.15 18.603 4.15 18.1123C4.15 17.6217 4.34491 17.1511 4.69185 16.8042ZM7.30815 4.80416C7.65509 5.1511 7.85 5.62165 7.85 6.1123V7.9623H6C5.50935 7.9623 5.03879 7.76739 4.69185 7.42045C4.34491 7.07351 4.15 6.60296 4.15 6.1123C4.15 5.62165 4.34491 5.1511 4.69185 4.80416C5.03879 4.45721 5.50935 4.2623 6 4.2623C6.49065 4.2623 6.96121 4.45721 7.30815 4.80416ZM19.3081 7.42045C18.9612 7.7674 18.4907 7.9623 18 7.9623H16.15V6.1123C16.15 5.62165 16.3449 5.1511 16.6919 4.80416C17.0388 4.45721 17.5093 4.2623 18 4.2623C18.4907 4.2623 18.9612 4.45721 19.3081 4.80416C19.6551 5.1511 19.85 5.62165 19.85 6.1123C19.85 6.60296 19.6551 7.07351 19.3081 7.42045Z" fill="#757575" stroke="#757575" stroke-width="0.3"/>
</svg>
