<svg width="24" height="25" viewBox="0 0 24 25" fill="none" xmlns="http://www.w3.org/2000/svg">
<path d="M11.9999 8.1123C13.0608 8.1123 14.0782 8.53373 14.8283 9.28388C15.5785 10.034 15.9999 11.0514 15.9999 12.1123C15.9999 13.1732 15.5785 14.1906 14.8283 14.9407C14.0782 15.6909 13.0608 16.1123 11.9999 16.1123C10.939 16.1123 9.92161 15.6909 9.17147 14.9407C8.42132 14.1906 7.99989 13.1732 7.99989 12.1123C7.99989 11.0514 8.42132 10.034 9.17147 9.28388C9.92161 8.53373 10.939 8.1123 11.9999 8.1123ZM11.9999 10.1123C11.4695 10.1123 10.9608 10.323 10.5857 10.6981C10.2106 11.0732 9.99989 11.5819 9.99989 12.1123C9.99989 12.6427 10.2106 13.1514 10.5857 13.5265C10.9608 13.9016 11.4695 14.1123 11.9999 14.1123C12.5303 14.1123 13.039 13.9016 13.4141 13.5265C13.7892 13.1514 13.9999 12.6427 13.9999 12.1123C13.9999 11.5819 13.7892 11.0732 13.4141 10.6981C13.039 10.323 12.5303 10.1123 11.9999 10.1123ZM9.99989 22.1123C9.74989 22.1123 9.53989 21.9323 9.49989 21.6923L9.12989 19.0423C8.49989 18.7923 7.95989 18.4523 7.43989 18.0523L4.94989 19.0623C4.72989 19.1423 4.45989 19.0623 4.33989 18.8423L2.33989 15.3823C2.27869 15.2793 2.25711 15.1575 2.2792 15.0397C2.30128 14.9219 2.36552 14.8162 2.45989 14.7423L4.56989 13.0823L4.49989 12.1123L4.56989 11.1123L2.45989 9.4823C2.36552 9.40844 2.30128 9.30273 2.2792 9.18493C2.25711 9.06714 2.27869 8.94534 2.33989 8.8423L4.33989 5.3823C4.45989 5.1623 4.72989 5.0723 4.94989 5.1623L7.43989 6.1623C7.95989 5.77231 8.49989 5.4323 9.12989 5.1823L9.49989 2.5323C9.53989 2.2923 9.74989 2.1123 9.99989 2.1123H13.9999C14.2499 2.1123 14.4599 2.2923 14.4999 2.5323L14.8699 5.1823C15.4999 5.4323 16.0399 5.77231 16.5599 6.1623L19.0499 5.1623C19.2699 5.0723 19.5399 5.1623 19.6599 5.3823L21.6599 8.8423C21.7899 9.0623 21.7299 9.3323 21.5399 9.4823L19.4299 11.1123L19.4999 12.1123L19.4299 13.1123L21.5399 14.7423C21.7299 14.8923 21.7899 15.1623 21.6599 15.3823L19.6599 18.8423C19.5399 19.0623 19.2699 19.1523 19.0499 19.0623L16.5599 18.0623C16.0399 18.4523 15.4999 18.7923 14.8699 19.0423L14.4999 21.6923C14.4599 21.9323 14.2499 22.1123 13.9999 22.1123H9.99989ZM11.2499 4.1123L10.8799 6.7223C9.67989 6.9723 8.61989 7.61231 7.84989 8.50231L5.43989 7.4623L4.68989 8.7623L6.79989 10.3123C6.39989 11.479 6.39989 12.7456 6.79989 13.9123L4.67989 15.4723L5.42989 16.7723L7.85989 15.7323C8.62989 16.6123 9.67989 17.2523 10.8699 17.4923L11.2399 20.1123H12.7599L13.1299 17.5023C14.3199 17.2523 15.3699 16.6123 16.1399 15.7323L18.5699 16.7723L19.3199 15.4723L17.1999 13.9223C17.5999 12.7523 17.5999 11.4823 17.1999 10.3123L19.3099 8.7623L18.5599 7.4623L16.1499 8.50231C15.3641 7.59263 14.2982 6.96998 13.1199 6.7323L12.7499 4.1123H11.2499Z" fill="#757575"/>
</svg>
