<svg width="24" height="25" viewBox="0 0 24 25" fill="none" xmlns="http://www.w3.org/2000/svg">
<path d="M16 2.1123C13.24 2.1123 11 4.3523 11 7.1123C11 9.8723 13.24 12.1123 16 12.1123C18.76 12.1123 21 9.8723 21 7.1123C21 4.3523 18.76 2.1123 16 2.1123ZM16 10.1123C14.34 10.1123 13 8.7723 13 7.1123C13 5.4523 14.34 4.1123 16 4.1123C17.66 4.1123 19 5.4523 19 7.1123C19 8.7723 17.66 10.1123 16 10.1123ZM19 16.1123H17C17 14.9123 16.25 13.8323 15.13 13.4123L8.97 11.1123H1V22.1123H7V20.6723L14 22.6123L22 20.1123V19.1123C22 17.4523 20.66 16.1123 19 16.1123ZM5 20.1123H3V13.1123H5V20.1123ZM13.97 20.5223L7 18.6123V13.1123H8.61L14.43 15.2823C14.77 15.4123 15 15.7423 15 16.1123C15 16.1123 13 16.0623 12.7 15.9623L10.32 15.1723L9.69 17.0723L12.07 17.8623C12.58 18.0323 13.11 18.1123 13.65 18.1123H19C19.39 18.1123 19.74 18.3523 19.9 18.6823L13.97 20.5223Z" fill="#757575"/>
</svg>
