<svg width="24" height="25" viewBox="0 0 24 25" fill="none" xmlns="http://www.w3.org/2000/svg">
<path d="M11 18.1123H13V16.1123H11V18.1123ZM12 2.1123C10.6868 2.1123 9.38642 2.37096 8.17317 2.87351C6.95991 3.37606 5.85752 4.11265 4.92893 5.04124C3.05357 6.9166 2 9.46014 2 12.1123C2 14.7645 3.05357 17.308 4.92893 19.1834C5.85752 20.112 6.95991 20.8486 8.17317 21.3511C9.38642 21.8536 10.6868 22.1123 12 22.1123C14.6522 22.1123 17.1957 21.0587 19.0711 19.1834C20.9464 17.308 22 14.7645 22 12.1123C22 10.7991 21.7413 9.49873 21.2388 8.28547C20.7362 7.07221 19.9997 5.96982 19.0711 5.04124C18.1425 4.11265 17.0401 3.37606 15.8268 2.87351C14.6136 2.37096 13.3132 2.1123 12 2.1123ZM12 20.1123C7.59 20.1123 4 16.5223 4 12.1123C4 7.7023 7.59 4.1123 12 4.1123C16.41 4.1123 20 7.7023 20 12.1123C20 16.5223 16.41 20.1123 12 20.1123ZM12 6.1123C10.9391 6.1123 9.92172 6.53373 9.17157 7.28388C8.42143 8.03402 8 9.05144 8 10.1123H10C10 9.58187 10.2107 9.07316 10.5858 8.69809C10.9609 8.32302 11.4696 8.1123 12 8.1123C12.5304 8.1123 13.0391 8.32302 13.4142 8.69809C13.7893 9.07316 14 9.58187 14 10.1123C14 12.1123 11 11.8623 11 15.1123H13C13 12.8623 16 12.6123 16 10.1123C16 9.05144 15.5786 8.03402 14.8284 7.28388C14.0783 6.53373 13.0609 6.1123 12 6.1123Z" fill="#757575"/>
</svg>
