<svg width="24" height="25" viewBox="0 0 24 25" fill="none" xmlns="http://www.w3.org/2000/svg">
<path d="M8.93449 3.17793C8.15622 2.39966 7.10065 1.96243 6 1.96243C4.89935 1.96243 3.84378 2.39966 3.06551 3.17793C2.28723 3.95621 1.85 5.01178 1.85 6.11243C1.85 7.21308 2.28723 8.26864 3.06551 9.04692C3.84378 9.8252 4.89935 10.2624 6 10.2624H7.85V13.9624H6C4.89935 13.9624 3.84378 14.3997 3.06551 15.1779C2.28723 15.9562 1.85 17.0118 1.85 18.1124C1.85 19.2131 2.28723 20.2686 3.06551 21.0469C3.84378 21.8252 4.89935 22.2624 6 22.2624C7.10065 22.2624 8.15622 21.8252 8.93449 21.0469C9.71277 20.2686 10.15 19.2131 10.15 18.1124V16.2624H13.85V18.1124C13.85 19.2131 14.2872 20.2686 15.0655 21.0469C15.8438 21.8252 16.8994 22.2624 18 22.2624C19.1006 22.2624 20.1562 21.8252 20.9345 21.0469C21.7128 20.2686 22.15 19.2131 22.15 18.1124C22.15 17.0118 21.7128 15.9562 20.9345 15.1779C20.1562 14.3997 19.1006 13.9624 18 13.9624H16.15V10.2624H18C19.1006 10.2624 20.1562 9.8252 20.9345 9.04692C21.7128 8.26864 22.15 7.21308 22.15 6.11243C22.15 5.01178 21.7128 3.95621 20.9345 3.17793C20.1562 2.39966 19.1006 1.96243 18 1.96243C16.8994 1.96243 15.8438 2.39966 15.0655 3.17793C14.2872 3.95621 13.85 5.01178 13.85 6.11243V7.96243H10.15V6.11243C10.15 5.01178 9.71277 3.95621 8.93449 3.17793ZM16.6919 19.4206C16.3449 19.0736 16.15 18.6031 16.15 18.1124V16.2624H18C18.4907 16.2624 18.9612 16.4573 19.3081 16.8043C19.6551 17.1512 19.85 17.6218 19.85 18.1124C19.85 18.6031 19.6551 19.0736 19.3081 19.4206C18.9612 19.7675 18.4907 19.9624 18 19.9624C17.5093 19.9624 17.0388 19.7675 16.6919 19.4206ZM10.15 13.9624V10.2624H13.85V13.9624H10.15ZM4.69185 16.8043C5.03879 16.4573 5.50935 16.2624 6 16.2624H7.85V18.1124C7.85 18.6031 7.65509 19.0736 7.30815 19.4206C6.96121 19.7675 6.49065 19.9624 6 19.9624C5.50935 19.9624 5.03879 19.7675 4.69185 19.4206C4.34491 19.0736 4.15 18.6031 4.15 18.1124C4.15 17.6218 4.34491 17.1512 4.69185 16.8043ZM7.30815 4.80428C7.65509 5.15122 7.85 5.62178 7.85 6.11243V7.96243H6C5.50935 7.96243 5.03879 7.76752 4.69185 7.42057C4.34491 7.07363 4.15 6.60308 4.15 6.11243C4.15 5.62178 4.34491 5.15122 4.69185 4.80428C5.03879 4.45734 5.50935 4.26243 6 4.26243C6.49065 4.26243 6.96121 4.45734 7.30815 4.80428ZM19.3081 7.42057C18.9612 7.76752 18.4907 7.96243 18 7.96243H16.15V6.11243C16.15 5.62178 16.3449 5.15122 16.6919 4.80428C17.0388 4.45734 17.5093 4.26243 18 4.26243C18.4907 4.26243 18.9612 4.45734 19.3081 4.80428C19.6551 5.15122 19.85 5.62178 19.85 6.11243C19.85 6.60308 19.6551 7.07363 19.3081 7.42057Z" fill="#4A85F6" stroke="#4A85F6" stroke-width="0.3"/>
</svg>
