<svg width="85" height="85" viewBox="0 0 85 85" fill="none" xmlns="http://www.w3.org/2000/svg">
<path d="M36.2184 62.3033L65.851 32.6707L59.9665 26.7862L36.2184 50.5344L24.2392 38.5552L18.3547 44.4397L36.2184 62.3033ZM42.1029 85.0006C36.2884 85.0006 30.8243 83.8973 25.7104 81.6906C20.5965 79.4839 16.1481 76.4892 12.3652 72.7063C8.58229 68.9234 5.58751 64.475 3.38083 59.3611C1.17414 54.2472 0.0708008 48.783 0.0708008 42.9686C0.0708008 37.1542 1.17414 31.69 3.38083 26.5761C5.58751 21.4622 8.58229 17.0138 12.3652 13.2309C16.1481 9.44802 20.5965 6.45323 25.7104 4.24655C30.8243 2.03987 36.2884 0.936523 42.1029 0.936523C47.9173 0.936523 53.3815 2.03987 58.4954 4.24655C63.6093 6.45323 68.0577 9.44802 71.8406 13.2309C75.6234 17.0138 78.6182 21.4622 80.8249 26.5761C83.0316 31.69 84.1349 37.1542 84.1349 42.9686C84.1349 48.783 83.0316 54.2472 80.8249 59.3611C78.6182 64.475 75.6234 68.9234 71.8406 72.7063C68.0577 76.4892 63.6093 79.4839 58.4954 81.6906C53.3815 83.8973 47.9173 85.0006 42.1029 85.0006ZM42.1029 76.5942C51.49 76.5942 59.4411 73.3368 65.9561 66.8218C72.471 60.3068 75.7285 52.3557 75.7285 42.9686C75.7285 33.5814 72.471 25.6304 65.9561 19.1154C59.4411 12.6004 51.49 9.34294 42.1029 9.34294C32.7157 9.34294 24.7646 12.6004 18.2497 19.1154C11.7347 25.6304 8.47721 33.5814 8.47721 42.9686C8.47721 52.3557 11.7347 60.3068 18.2497 66.8218C24.7646 73.3368 32.7157 76.5942 42.1029 76.5942Z" fill="#43D649"/>
</svg>
