<svg width="141" height="26" viewBox="0 0 141 26" fill="none" xmlns="http://www.w3.org/2000/svg">
<path d="M138.366 19.4349C137.829 19.4349 137.378 19.2529 137.014 18.8889C136.65 18.5249 136.468 18.0742 136.468 17.5369C136.468 16.9996 136.65 16.5489 137.014 16.1849C137.378 15.8209 137.829 15.6389 138.366 15.6389C138.886 15.6389 139.328 15.8209 139.692 16.1849C140.056 16.5489 140.238 16.9996 140.238 17.5369C140.238 18.0742 140.056 18.5249 139.692 18.8889C139.328 19.2529 138.886 19.4349 138.366 19.4349Z" fill="#152C5B"/>
<path d="M134.934 4.92688L126.146 25.9869H123.078L125.99 19.0189L120.348 4.92688H123.65L127.68 15.8469L131.866 4.92688H134.934Z" fill="#152C5B"/>
<path d="M103.429 12.025C103.429 10.5863 103.723 9.31233 104.313 8.20299C104.919 7.09366 105.734 6.23566 106.757 5.62899C107.797 5.00499 108.941 4.69299 110.189 4.69299C111.315 4.69299 112.295 4.91833 113.127 5.36899C113.976 5.80233 114.652 6.34833 115.155 7.00699V4.92699H118.145V19.253H115.155V17.121C114.652 17.797 113.967 18.3603 113.101 18.811C112.234 19.2617 111.246 19.487 110.137 19.487C108.906 19.487 107.779 19.175 106.757 18.551C105.734 17.9097 104.919 17.0257 104.313 15.899C103.723 14.755 103.429 13.4637 103.429 12.025ZM115.155 12.077C115.155 11.089 114.947 10.231 114.531 9.50299C114.132 8.77499 113.603 8.22033 112.945 7.83899C112.286 7.45766 111.575 7.26699 110.813 7.26699C110.05 7.26699 109.339 7.45766 108.681 7.83899C108.022 8.20299 107.485 8.74899 107.069 9.47699C106.67 10.1877 106.471 11.037 106.471 12.025C106.471 13.013 106.67 13.8797 107.069 14.625C107.485 15.3703 108.022 15.9423 108.681 16.341C109.357 16.7223 110.067 16.913 110.813 16.913C111.575 16.913 112.286 16.7223 112.945 16.341C113.603 15.9597 114.132 15.405 114.531 14.677C114.947 13.9317 115.155 13.065 115.155 12.077Z" fill="#152C5B"/>
<path d="M98.2005 7.34499V15.275C98.2005 15.8123 98.3218 16.2023 98.5645 16.445C98.8245 16.6703 99.2578 16.783 99.8645 16.783H101.685V19.253H99.3445C98.0098 19.253 96.9872 18.941 96.2765 18.317C95.5658 17.693 95.2105 16.679 95.2105 15.275V7.34499H93.5205V4.92699H95.2105V1.36499H98.2005V4.92699H101.685V7.34499H98.2005Z" fill="#152C5B"/>
<path d="M85.0054 19.435C83.792 19.435 82.7 19.227 81.7294 18.811C80.7587 18.3776 79.996 17.771 79.4414 16.991C78.8867 16.211 78.6094 15.301 78.6094 14.261H81.7814C81.8507 15.041 82.154 15.6823 82.6914 16.185C83.246 16.6876 84.0174 16.939 85.0054 16.939C86.028 16.939 86.8254 16.6963 87.3974 16.211C87.9694 15.7083 88.2554 15.067 88.2554 14.287C88.2554 13.6803 88.0734 13.1863 87.7094 12.805C87.3627 12.4236 86.9207 12.129 86.3834 11.921C85.8634 11.713 85.1354 11.4876 84.1994 11.245C83.0207 10.933 82.0587 10.621 81.3134 10.309C80.5854 9.97964 79.9614 9.47698 79.4414 8.80098C78.9214 8.12498 78.6614 7.22364 78.6614 6.09698C78.6614 5.05698 78.9214 4.14698 79.4414 3.36698C79.9614 2.58698 80.6894 1.98898 81.6254 1.57298C82.5614 1.15698 83.6447 0.948975 84.8754 0.948975C86.626 0.948975 88.056 1.39097 89.1654 2.27497C90.292 3.14164 90.916 4.33764 91.0374 5.86298H87.7614C87.7094 5.20431 87.3974 4.64098 86.8254 4.17298C86.2534 3.70498 85.4994 3.47097 84.5634 3.47097C83.714 3.47097 83.0207 3.68764 82.4834 4.12098C81.946 4.55431 81.6774 5.17831 81.6774 5.99298C81.6774 6.54764 81.842 7.00698 82.1714 7.37098C82.518 7.71764 82.9514 7.99498 83.4714 8.20298C83.9914 8.41097 84.702 8.63631 85.6034 8.87898C86.7994 9.20831 87.77 9.53764 88.5154 9.86697C89.278 10.1963 89.9194 10.7076 90.4394 11.401C90.9767 12.077 91.2454 12.987 91.2454 14.131C91.2454 15.0496 90.994 15.9163 90.4914 16.731C90.006 17.5456 89.2867 18.2043 88.3334 18.707C87.3974 19.1923 86.288 19.435 85.0054 19.435Z" fill="#152C5B"/>
<path d="M60.4424 12.025C60.4424 10.5863 60.737 9.31233 61.3264 8.20299C61.933 7.09366 62.7477 6.23566 63.7704 5.62899C64.8104 5.00499 65.9544 4.69299 67.2024 4.69299C68.329 4.69299 69.3084 4.91833 70.1404 5.36899C70.9897 5.80233 71.6657 6.34833 72.1684 7.00699V4.92699H75.1584V19.253H72.1684V17.121C71.6657 17.797 70.9811 18.3603 70.1144 18.811C69.2477 19.2617 68.2597 19.487 67.1504 19.487C65.9197 19.487 64.793 19.175 63.7704 18.551C62.7477 17.9097 61.933 17.0257 61.3264 15.899C60.737 14.755 60.4424 13.4637 60.4424 12.025ZM72.1684 12.077C72.1684 11.089 71.9604 10.231 71.5444 9.50299C71.1457 8.77499 70.6171 8.22033 69.9584 7.83899C69.2997 7.45766 68.589 7.26699 67.8264 7.26699C67.0637 7.26699 66.353 7.45766 65.6944 7.83899C65.0357 8.20299 64.4984 8.74899 64.0824 9.47699C63.6837 10.1877 63.4844 11.037 63.4844 12.025C63.4844 13.013 63.6837 13.8797 64.0824 14.625C64.4984 15.3703 65.0357 15.9423 65.6944 16.341C66.3704 16.7223 67.081 16.913 67.8264 16.913C68.589 16.913 69.2997 16.7223 69.9584 16.341C70.6171 15.9597 71.1457 15.405 71.5444 14.677C71.9604 13.9317 72.1684 13.065 72.1684 12.077Z" fill="#3252DF"/>
<path d="M52.7017 12.1029L59.3057 19.2529H55.3017L49.9977 13.0909V19.2529H47.0337V0.0129395H49.9977V11.1929L55.1977 4.92694H59.3057L52.7017 12.1029Z" fill="#3252DF"/>
<path d="M37.3769 4.69299C38.5036 4.69299 39.5089 4.92699 40.3929 5.39499C41.2943 5.86299 41.9963 6.55633 42.4989 7.47499C43.0016 8.39366 43.2529 9.50299 43.2529 10.803V19.253H40.3149V11.245C40.3149 9.96233 39.9943 8.98299 39.3529 8.30699C38.7116 7.61366 37.8363 7.26699 36.7269 7.26699C35.6176 7.26699 34.7336 7.61366 34.0749 8.30699C33.4336 8.98299 33.1129 9.96233 33.1129 11.245V19.253H30.1489V4.92699H33.1129V6.56499C33.5983 5.97566 34.2136 5.51633 34.9589 5.18699C35.7216 4.85766 36.5276 4.69299 37.3769 4.69299Z" fill="#3252DF"/>
<path d="M11.54 12.025C11.54 10.5863 11.8347 9.31233 12.424 8.20299C13.0307 7.09366 13.8454 6.23566 14.868 5.62899C15.908 5.00499 17.052 4.69299 18.3 4.69299C19.4267 4.69299 20.406 4.91833 21.238 5.36899C22.0874 5.80233 22.7634 6.34833 23.266 7.00699V4.92699H26.256V19.253H23.266V17.121C22.7634 17.797 22.0787 18.3603 21.212 18.811C20.3454 19.2617 19.3574 19.487 18.248 19.487C17.0174 19.487 15.8907 19.175 14.868 18.551C13.8454 17.9097 13.0307 17.0257 12.424 15.899C11.8347 14.755 11.54 13.4637 11.54 12.025ZM23.266 12.077C23.266 11.089 23.058 10.231 22.642 9.50299C22.2434 8.77499 21.7147 8.22033 21.056 7.83899C20.3974 7.45766 19.6867 7.26699 18.924 7.26699C18.1614 7.26699 17.4507 7.45766 16.792 7.83899C16.1334 8.20299 15.596 8.74899 15.18 9.47699C14.7814 10.1877 14.582 11.037 14.582 12.025C14.582 13.013 14.7814 13.8797 15.18 14.625C15.596 15.3703 16.1334 15.9423 16.792 16.341C17.468 16.7223 18.1787 16.913 18.924 16.913C19.6867 16.913 20.3974 16.7223 21.056 16.341C21.7147 15.9597 22.2434 15.405 22.642 14.677C23.058 13.9317 23.266 13.065 23.266 12.077Z" fill="#3252DF"/>
<path d="M3.9391 16.861H10.0491V19.253H0.975098V1.18298H3.9391V16.861Z" fill="#3252DF"/>
</svg>
